<?xml version="1.0" encoding="UTF-8"?>
<svg width="200mm" height="200mm" version="1.1" viewBox="0 0 200 200" xml:space="preserve" xmlns="http://www.w3.org/2000/svg" xmlns:xlink="http://www.w3.org/1999/xlink"><defs><linearGradient id="linearGradient989"><stop stop-color="#ff009b" offset="0"/><stop stop-color="#f000ff" offset="1"/></linearGradient><linearGradient id="linearGradient217"><stop stop-color="#ff022c" offset="0"/><stop stop-color="#f0a" offset="1"/></linearGradient><linearGradient id="linearGradient219" x1="29.766" x2="30.724" y1="37.667" y2="170.6" gradientUnits="userSpaceOnUse" xlink:href="#linearGradient217"/><linearGradient id="linearGradient991" x1="110.39" x2="109.61" y1="3.6653" y2="107.86" gradientUnits="userSpaceOnUse" xlink:href="#linearGradient989"/><linearGradient id="linearGradient999" x1="73.791" x2="133.09" y1="28.652" y2="145.41" gradientTransform="matrix(1.1667,0,0,1.1667,-6.1066,-34.953)" gradientUnits="userSpaceOnUse"><stop stop-color="#f0f" offset="0"/><stop stop-color="#bf00ff" offset="1"/></linearGradient><linearGradient id="linearGradient1008" x1="64.649" x2="110.62" y1="-19.932" y2="144.11" gradientTransform="matrix(1.1667,0,0,1.1667,-6.1066,-34.953)" gradientUnits="userSpaceOnUse"><stop stop-color="#fff" offset="0"/><stop stop-color="#ccc" offset="1"/></linearGradient></defs><g transform="matrix(.96622 0 0 .96622 54.126 63.655)" stroke-width="1.1667"><path d="m92.354 104.15c-1.2074-0.547-2.2244-1.8312-2.4409-3.082-0.0925-0.53455-0.93556-9.3063-1.8734-19.493-5.8783-63.846-5.4866-60.159-7.0843-66.675-0.41633-1.6977-1.3209-5.1009-2.0103-7.5627-2.6103-9.3219-4.2359-19.354-3.9008-24.073 0.57493-8.0946 5.953-14.95 13.631-17.375 3.047-0.96259 8.0655-0.96259 11.112 0 7.6787 2.4259 13.057 9.281 13.631 17.375 0.33515 4.7185-1.2904 14.751-3.9008 24.073-3.2904 11.751-3.3899 12.395-5.5786 36.115-1.0104 10.95-1.9794 21.438-2.1532 23.305-0.17387 1.8675-0.94557 10.41-1.7149 18.984-1.4895 16.598-1.5031 16.674-3.2585 17.982-1.0413 0.77607-3.226 0.98438-4.4601 0.42525zm3.0998-19.033c4.1201-45.581 5.557-60.783 6.0147-63.634 0.65821-4.0996 1.6063-8.2312 3.1336-13.657 2.5901-9.201 4.2924-18.31 4.2924-22.968 0-4.3225-1.6801-8.2167-4.807-11.142-5.768-5.3956-13.943-5.3956-19.711 0-3.1269 2.9251-4.807 6.8193-4.807 11.142 0 4.658 1.7023 13.767 4.2924 22.968 2.7139 9.6408 3.1175 12.047 4.5278 26.984 1.8105 19.178 5.6863 61.55 5.687 62.173 3.1e-4 0.3254 0.0624 0.52987 0.13797 0.45437 0.0755-0.0754 0.63288-5.6202 1.2386-12.321zm-3.7828-85.804c-1.4559-0.61675-2.8343-1.9509-3.5971-3.482-0.76072-1.5266-0.78672-1.7737-0.78506-7.4604 7.7e-4 -3.2348 0.13699-6.3677 0.30233-6.9619 0.75891-2.7276 3.5919-4.7566 6.6412-4.7566s5.8823 2.0291 6.6412 4.7566c0.16534 0.59421 0.30138 3.7385 0.30233 6.9873 3e-3 5.8679-4e-3 5.9177-0.86053 7.5574-0.53652 1.027-1.3601 2.0005-2.1802 2.5768-1.1262 0.7915-1.6408 0.93771-3.5364 1.0047-1.2202 0.04315-2.5376-0.05674-2.9276-0.22197zm4.259-4.9397c0.57124-0.57126 0.61735-1.0289 0.61735-6.1285 0-5.4221-0.0122-5.5244-0.75695-6.328-0.41632-0.44922-0.97884-0.81677-1.2501-0.81677-0.75531 0-2.2167 0.84316-2.4314 1.4029-0.10547 0.27483-0.19174 2.831-0.19174 5.6804 0 4.7738 0.0503 5.2446 0.63976 5.994 0.80164 1.0191 2.454 1.1151 3.373 0.19596z" fill="url(#linearGradient1008)"/><path d="m96.435 122.45c-0.58668-0.46146-0.81332-0.92515-0.81332-1.6639 0-0.91049 0.46286-1.4712 4.1704-5.0517 7.2991-7.0489 13.592-11.206 22.056-14.571 5.3765-2.1374 9.3949-5.6589 11.726-10.276 3.2227-6.383 3.261-12.584 0.11726-19.039-1.4112-2.898-1.5324-3.0378-10.298-11.884-12.075-12.186-12.809-13.41-12.79-21.299 9e-3 -3.9351 0.0839-4.5064 0.82882-6.3886 1.3848-3.499 2.8806-5.4238 9.188-11.823 3.3465-3.3955 6.4409-6.7986 6.8767-7.5627 1.4141-2.4795 1.771-4.3458 1.771-9.2604 0-6.2943-0.7819-8.7655-3.7748-11.93-2.7705-2.9294-5.8372-4.4415-9.8843-4.874l-2.2169-0.1274 0.0571-2.3753-0.15237-2.242 2.1027 0.17077c6.1792 0.50184 11.401 3.1974 14.847 7.7959 2.8596 3.8166 3.6521 6.7078 3.6521 13.323 0 5.7722-0.27058 7.2877-1.9166 10.735-1.1586 2.4261-1.6926 3.0623-7.8107 9.3052-5.849 5.9682-6.6972 6.9644-7.7575 9.1097-1.1902 2.4084-1.1905 2.4091-1.1905 6.2832 0 3.8409 0.0105 3.8956 1.1583 6.3004 1.0869 2.2764 1.7243 2.9994 10.341 11.73 7.7119 7.8138 9.39 9.6748 10.477 11.619 1.5438 2.7608 2.7515 6.2452 3.1715 9.1504 1.3084 9.0508-2.52 18.373-9.8682 24.03-1.9028 1.4649-3.8378 2.4835-8.7974 4.6313-7.459 3.2303-12.08 6.412-19.202 13.222-4.0457 3.8681-4.5834 4.1307-6.0675 2.9633zm-27.343-112.01c-0.87578-0.87578-1.0561-2.4026-0.81895-6.9344 0.38224-7.3046 1.7884-10.749 6.1947-15.175 3.0031-3.0162 5.5288-4.5222 9.2694-5.5272 2.6337-0.7076 12.048-1.068 12.427-0.46907 0.24584 0.20931 0.39024 1.3293 0.39284 2.3904l5e-3 1.9292-3.9508 0.0096c-7.6476 0.02009-10.971 1.0631-14.694 4.611-3.6898 3.5166-4.7825 6.4835-5.0514 13.717-0.15647 4.2078-0.26397 4.9909-0.75217 5.4791-0.74302 0.74302-2.2637 0.72765-3.0218-0.03054z" fill="url(#linearGradient999)"/></g><g transform="matrix(1.5879,0,0,1.5874,-123.62,25.628)" fill="url(#linearGradient991)"><path d="m121.66 106.04c-1.1911-1.1911-0.9275-1.7987 2.1168-4.8801l2.7662-2.7999-2.7662-2.8072c-3.043-3.088-3.3056-3.6938-2.1168-4.8826 1.2153-1.2153 1.8468-0.94173 4.902 2.1238l2.7638 2.7733 2.8143-2.7733c2.3731-2.3385 2.9449-2.7733 3.6476-2.7733 1.0926 0 1.8916 0.81234 1.8916 1.9232 0 0.74338-0.37166 1.2351-2.6458 3.5008-1.4552 1.4498-2.6458 2.7594-2.6458 2.9104 0 0.15098 1.1906 1.4607 2.6458 2.9104 2.2612 2.2527 2.6458 2.7601 2.6458 3.4905 0 1.0677-0.87049 1.9335-1.9439 1.9335-0.64265 0-1.2957-0.50382-3.5857-2.7662l-2.7999-2.7662-2.8072 2.7662c-3.088 3.043-3.6938 3.3056-4.8826 2.1168z"/><path d="m81.659 106.04c-1.1911-1.1911-0.9275-1.7987 2.1168-4.8801l2.7662-2.7999-2.7662-2.8072c-3.043-3.088-3.3056-3.6938-2.1168-4.8826 1.2153-1.2153 1.8468-0.94173 4.902 2.1238l2.7638 2.7733 2.8143-2.7733c2.3731-2.3385 2.9449-2.7733 3.6476-2.7733 1.0926 0 1.8916 0.81234 1.8916 1.9232 0 0.74338-0.37166 1.2351-2.6458 3.5008-1.4552 1.4498-2.6458 2.7594-2.6458 2.9104 0 0.15098 1.1906 1.4607 2.6458 2.9104 2.2612 2.2527 2.6458 2.7601 2.6458 3.4905 0 1.0677-0.87048 1.9335-1.9439 1.9335-0.64265 0-1.2957-0.50382-3.5857-2.7662l-2.7999-2.7662-2.8072 2.7662c-3.088 3.043-3.6938 3.3056-4.8826 2.1168z"/><path d="m101.66 106.04c-1.1911-1.1911-0.9275-1.7987 2.1168-4.8801l2.7662-2.7999-2.7662-2.8072c-3.043-3.088-3.3056-3.6938-2.1168-4.8826 1.2153-1.2153 1.8468-0.94173 4.902 2.1238l2.7638 2.7733 2.8143-2.7733c2.3731-2.3385 2.9449-2.7733 3.6476-2.7733 1.0926 0 1.8916 0.81234 1.8916 1.9232 0 0.74338-0.37166 1.2351-2.6458 3.5008-1.4552 1.4498-2.6458 2.7594-2.6458 2.9104 0 0.15098 1.1906 1.4607 2.6458 2.9104 2.2612 2.2527 2.6458 2.7601 2.6458 3.4905 0 1.0677-0.87049 1.9335-1.9439 1.9335-0.64265 0-1.2957-0.50382-3.5857-2.7662l-2.7999-2.7662-2.8072 2.7662c-3.088 3.043-3.6938 3.3056-4.8826 2.1168z"/><path d="m101.66 86.043c-1.1911-1.1911-0.9275-1.7987 2.1168-4.8801l2.7662-2.7999-2.7662-2.8072c-3.043-3.088-3.3056-3.6938-2.1168-4.8826 1.2153-1.2153 1.8468-0.94173 4.902 2.1238l2.7638 2.7733 2.8143-2.7733c2.3731-2.3385 2.9449-2.7733 3.6476-2.7733 1.0926 0 1.8916 0.81234 1.8916 1.9232 0 0.74338-0.37166 1.2351-2.6458 3.5008-1.4552 1.4498-2.6458 2.7594-2.6458 2.9104 0 0.15098 1.1906 1.4607 2.6458 2.9104 2.2612 2.2527 2.6458 2.7601 2.6458 3.4905 0 1.0677-0.87049 1.9335-1.9439 1.9335-0.64265 0-1.2957-0.50382-3.5857-2.7662l-2.7999-2.7662-2.8072 2.7662c-3.088 3.043-3.6938 3.3056-4.8826 2.1168z"/><path d="m121.66 66.043c-1.1911-1.1911-0.9275-1.7987 2.1168-4.8801l2.7662-2.7999-2.7662-2.8072c-3.043-3.088-3.3056-3.6938-2.1168-4.8826 1.2153-1.2153 1.8468-0.94173 4.902 2.1238l2.7638 2.7733 2.8143-2.7733c2.3731-2.3385 2.9449-2.7733 3.6476-2.7733 1.0926 0 1.8916 0.81234 1.8916 1.9232 0 0.74338-0.37166 1.2351-2.6458 3.5008-1.4552 1.4498-2.6458 2.7594-2.6458 2.9104 0 0.15098 1.1906 1.4607 2.6458 2.9104 2.2612 2.2527 2.6458 2.7601 2.6458 3.4905 0 1.0677-0.87049 1.9335-1.9439 1.9335-0.64265 0-1.2957-0.50382-3.5857-2.7662l-2.7999-2.7662-2.8072 2.7662c-3.088 3.043-3.6938 3.3056-4.8826 2.1168z"/><path d="m101.66 66.043c-1.1911-1.1911-0.9275-1.7987 2.1168-4.8801l2.7662-2.7999-2.7662-2.8072c-3.043-3.088-3.3056-3.6938-2.1168-4.8826 1.2153-1.2153 1.8468-0.94173 4.902 2.1238l2.7638 2.7733 2.8143-2.7733c2.3731-2.3385 2.9449-2.7733 3.6476-2.7733 1.0926 0 1.8916 0.81234 1.8916 1.9232 0 0.74338-0.37166 1.2351-2.6458 3.5008-1.4552 1.4498-2.6458 2.7594-2.6458 2.9104 0 0.15098 1.1906 1.4607 2.6458 2.9104 2.2612 2.2527 2.6458 2.7601 2.6458 3.4905 0 1.0677-0.87049 1.9335-1.9439 1.9335-0.64265 0-1.2957-0.50382-3.5857-2.7662l-2.7999-2.7662-2.8072 2.7662c-3.088 3.043-3.6938 3.3056-4.8826 2.1168z"/><path d="m81.659 66.043c-1.1911-1.1911-0.9275-1.7987 2.1168-4.8801l2.7662-2.7999-2.7662-2.8072c-3.043-3.088-3.3056-3.6938-2.1168-4.8826 1.2153-1.2153 1.8468-0.94173 4.902 2.1238l2.7638 2.7733 2.8143-2.7733c2.3731-2.3385 2.9449-2.7733 3.6476-2.7733 1.0926 0 1.8916 0.81234 1.8916 1.9232 0 0.74338-0.37166 1.2351-2.6458 3.5008-1.4552 1.4498-2.6458 2.7594-2.6458 2.9104 0 0.15098 1.1906 1.4607 2.6458 2.9104 2.2612 2.2527 2.6458 2.7601 2.6458 3.4905 0 1.0677-0.87048 1.9335-1.9439 1.9335-0.64265 0-1.2957-0.50382-3.5857-2.7662l-2.7999-2.7662-2.8072 2.7662c-3.088 3.043-3.6938 3.3056-4.8826 2.1168z"/></g><g transform="matrix(1.5879,0,0,1.5874,3.4122,-74.37)" fill="url(#linearGradient219)"><path d="m41.659 66.043c-1.1911-1.1911-0.9275-1.7987 2.1168-4.8801l2.7662-2.7999-2.7662-2.8072c-3.043-3.088-3.3056-3.6938-2.1168-4.8826 1.2153-1.2153 1.8468-0.94173 4.902 2.1238l2.7638 2.7733 2.8143-2.7733c2.3731-2.3385 2.9449-2.7733 3.6476-2.7733 1.0926 0 1.8916 0.81234 1.8916 1.9232 0 0.74338-0.37166 1.2351-2.6458 3.5008-1.4552 1.4498-2.6458 2.7594-2.6458 2.9104 0 0.15098 1.1906 1.4607 2.6458 2.9104 2.2612 2.2527 2.6458 2.7601 2.6458 3.4905 0 1.0677-0.87048 1.9335-1.9439 1.9335-0.64265 0-1.2957-0.50382-3.5857-2.7662l-2.7999-2.7662-2.8072 2.7662c-3.088 3.043-3.6938 3.3056-4.8826 2.1168z"/><path d="m41.659 86.043c-1.1911-1.1911-0.9275-1.7987 2.1168-4.8801l2.7662-2.7999-2.7662-2.8072c-3.043-3.088-3.3056-3.6938-2.1168-4.8826 1.2153-1.2153 1.8468-0.94173 4.902 2.1238l2.7638 2.7733 2.8143-2.7733c2.3731-2.3385 2.9449-2.7733 3.6476-2.7733 1.0926 0 1.8916 0.81234 1.8916 1.9232 0 0.74338-0.37166 1.2351-2.6458 3.5008-1.4552 1.4498-2.6458 2.7594-2.6458 2.9104 0 0.15098 1.1906 1.4607 2.6458 2.9104 2.2612 2.2527 2.6458 2.7601 2.6458 3.4905 0 1.0677-0.87048 1.9335-1.9439 1.9335-0.64265 0-1.2957-0.50382-3.5857-2.7662l-2.7999-2.7662-2.8072 2.7662c-3.088 3.043-3.6938 3.3056-4.8826 2.1168z"/><path d="m41.659 106.04c-1.1911-1.1911-0.9275-1.7987 2.1168-4.8801l2.7662-2.7999-2.7662-2.8072c-3.043-3.088-3.3056-3.6938-2.1168-4.8826 1.2153-1.2153 1.8468-0.94173 4.902 2.1238l2.7638 2.7733 2.8143-2.7733c2.3731-2.3385 2.9449-2.7733 3.6476-2.7733 1.0926 0 1.8916 0.81234 1.8916 1.9232 0 0.74338-0.37166 1.2351-2.6458 3.5008-1.4552 1.4498-2.6458 2.7594-2.6458 2.9104 0 0.15098 1.1906 1.4607 2.6458 2.9104 2.2612 2.2527 2.6458 2.7601 2.6458 3.4905 0 1.0677-0.87048 1.9335-1.9439 1.9335-0.64265 0-1.2957-0.50382-3.5857-2.7662l-2.7999-2.7662-2.8072 2.7662c-3.088 3.043-3.6938 3.3056-4.8826 2.1168z"/><path d="m21.659 106.04c-1.1911-1.1911-0.9275-1.7987 2.1168-4.8801l2.7662-2.7999-2.7662-2.8072c-3.043-3.088-3.3056-3.6938-2.1168-4.8826 1.2153-1.2153 1.8468-0.94173 4.902 2.1238l2.7638 2.7733 2.8143-2.7733c2.3731-2.3385 2.9449-2.7733 3.6476-2.7733 1.0926 0 1.8916 0.81234 1.8916 1.9232 0 0.74338-0.37166 1.2351-2.6458 3.5008-1.4552 1.4498-2.6458 2.7594-2.6458 2.9104 0 0.15098 1.1906 1.4607 2.6458 2.9104 2.2612 2.2527 2.6458 2.7601 2.6458 3.4905 0 1.0677-0.87048 1.9335-1.9439 1.9335-0.64265 0-1.2957-0.50382-3.5857-2.7662l-2.7999-2.7662-2.8072 2.7662c-3.088 3.043-3.6938 3.3056-4.8826 2.1168z"/><path d="m1.6592 106.04c-1.1911-1.1911-0.9275-1.7987 2.1168-4.8801l2.7662-2.7999-2.7662-2.8072c-3.043-3.088-3.3056-3.6938-2.1168-4.8826 1.2153-1.2153 1.8468-0.94173 4.902 2.1238l2.7638 2.7733 2.8143-2.7733c2.3731-2.3385 2.9449-2.7733 3.6476-2.7733 1.0926 0 1.8916 0.81234 1.8916 1.9232 0 0.74338-0.37166 1.2351-2.6458 3.5008-1.4552 1.4498-2.6458 2.7594-2.6458 2.9104 0 0.15098 1.1906 1.4607 2.6458 2.9104 2.2612 2.2527 2.6458 2.7601 2.6458 3.4905 0 1.0677-0.87048 1.9335-1.9439 1.9335-0.64265 0-1.2957-0.50382-3.5857-2.7662l-2.7999-2.7662-2.8072 2.7662c-3.088 3.043-3.6938 3.3056-4.8826 2.1168z"/><path d="m1.6592 86.043c-1.1911-1.1911-0.9275-1.7987 2.1168-4.8801l2.7662-2.7999-2.7662-2.8072c-3.043-3.088-3.3056-3.6938-2.1168-4.8826 1.2153-1.2153 1.8468-0.94173 4.902 2.1238l2.7638 2.7733 2.8143-2.7733c2.3731-2.3385 2.9449-2.7733 3.6476-2.7733 1.0926 0 1.8916 0.81234 1.8916 1.9232 0 0.74338-0.37166 1.2351-2.6458 3.5008-1.4552 1.4498-2.6458 2.7594-2.6458 2.9104 0 0.15098 1.1906 1.4607 2.6458 2.9104 2.2612 2.2527 2.6458 2.7601 2.6458 3.4905 0 1.0677-0.87048 1.9335-1.9439 1.9335-0.64265 0-1.2957-0.50382-3.5857-2.7662l-2.7999-2.7662-2.8072 2.7662c-3.088 3.043-3.6938 3.3056-4.8826 2.1168z"/><path d="m1.6592 66.043c-1.1911-1.1911-0.9275-1.7987 2.1168-4.8801l2.7662-2.7999-2.7662-2.8072c-3.043-3.088-3.3056-3.6938-2.1168-4.8826 1.2153-1.2153 1.8468-0.94173 4.902 2.1238l2.7638 2.7733 2.8143-2.7733c2.3731-2.3385 2.9449-2.7733 3.6476-2.7733 1.0926 0 1.8916 0.81234 1.8916 1.9232 0 0.74338-0.37166 1.2351-2.6458 3.5008-1.4552 1.4498-2.6458 2.7594-2.6458 2.9104 0 0.15098 1.1906 1.4607 2.6458 2.9104 2.2612 2.2527 2.6458 2.7601 2.6458 3.4905 0 1.0677-0.87048 1.9335-1.9439 1.9335-0.64265 0-1.2957-0.50382-3.5857-2.7662l-2.7999-2.7662-2.8072 2.7662c-3.088 3.043-3.6938 3.3056-4.8826 2.1168z"/></g></svg>
