<?xml version="1.0" encoding="UTF-8"?>
<svg width="200mm" height="200mm" version="1.1" viewBox="0 0 200 200" xml:space="preserve" xmlns="http://www.w3.org/2000/svg" xmlns:xlink="http://www.w3.org/1999/xlink"><defs><linearGradient id="linearGradient989"><stop stop-color="#ff009b" offset="0"/><stop stop-color="#f000ff" offset="1"/></linearGradient><linearGradient id="linearGradient217"><stop stop-color="#ff022c" offset="0"/><stop stop-color="#f0a" offset="1"/></linearGradient><linearGradient id="linearGradient219" x1="-71.435" x2="148.53" y1="113.2" y2="46.485" gradientUnits="userSpaceOnUse" xlink:href="#linearGradient217"/><linearGradient id="linearGradient991" x1="67.152" x2="145.33" y1="113.36" y2="48.935" gradientUnits="userSpaceOnUse" xlink:href="#linearGradient989"/><linearGradient id="linearGradient999" x1="73.791" x2="133.09" y1="28.652" y2="145.41" gradientUnits="userSpaceOnUse"><stop stop-color="#f0f" offset="0"/><stop stop-color="#bf00ff" offset="1"/></linearGradient><linearGradient id="linearGradient1008" x1="64.649" x2="110.62" y1="-19.932" y2="144.11" gradientUnits="userSpaceOnUse"><stop stop-color="#fff" offset="0"/><stop stop-color="#ccc" offset="1"/></linearGradient></defs><g transform="matrix(.77339 0 0 .77339 115.69 34.921)"><path d="m84.395 119.23c-1.0349-0.46885-1.9066-1.5696-2.0922-2.6417-0.07931-0.45818-0.80192-7.9768-1.6058-16.708-5.0386-54.725-4.7028-51.565-6.0723-57.15-0.35685-1.4552-1.1322-4.3722-1.7231-6.4823-2.2374-7.9902-3.6308-16.589-3.3435-20.634 0.4928-6.9382 5.1026-12.814 11.684-14.893 2.6117-0.82508 6.9133-0.82508 9.525 0 6.5818 2.0793 11.192 7.9551 11.684 14.893 0.28726 4.0444-1.1061 12.644-3.3435 20.634-2.8203 10.072-2.9056 10.624-4.7817 30.956-0.86608 9.3861-1.6966 18.375-1.8456 19.976-0.14903 1.6007-0.8105 8.9231-1.4699 16.272-1.2767 14.227-1.2884 14.292-2.793 15.413-0.89251 0.66521-2.7652 0.84376-3.823 0.3645zm2.657-16.314c3.5315-39.069 4.7632-52.1 5.1555-54.543 0.56418-3.5139 1.3768-7.0553 2.6859-11.706 2.2201-7.8866 3.6792-15.694 3.6792-19.687 0-3.705-1.4401-7.0429-4.1203-9.5502-4.944-4.6248-11.951-4.6248-16.895 0-2.6802 2.5072-4.1203 5.8451-4.1203 9.5502 0 3.9926 1.4591 11.8 3.6792 19.687 2.3262 8.2635 2.6722 10.326 3.881 23.129 1.5519 16.438 4.874 52.757 4.8746 53.291 2.64e-4 0.27891 0.05354 0.45417 0.11826 0.38946 0.06471-0.0647 0.54247-4.8173 1.0617-10.561zm-3.2424-73.546c-1.2479-0.52864-2.4294-1.6722-3.0833-2.9846-0.65205-1.3085-0.67434-1.5203-0.67292-6.3946 8.09e-4 -2.7727 0.11742-5.458 0.25914-5.9673 0.65051-2.3379 3.0788-4.0771 5.6925-4.0771s5.042 1.7392 5.6925 4.0771c0.14172 0.50932 0.25833 3.2044 0.25914 5.9891 0.0016 5.0296-0.0034 5.0723-0.7376 6.4778-0.45988 0.88031-1.1658 1.7147-1.8688 2.2087-0.96529 0.67843-1.4064 0.80375-3.0312 0.86121-1.0459 0.03698-2.1751-0.04864-2.5094-0.19026zm3.6506-4.234c0.48965-0.48965 0.52917-0.88194 0.52917-5.253 0-4.6475-0.01048-4.7352-0.64882-5.424-0.35685-0.38505-0.83902-0.70009-1.0715-0.70009-0.64742 0-1.9 0.72271-2.0841 1.2025-0.0904 0.23557-0.16435 2.4266-0.16435 4.8689 0 4.0918 0.04307 4.4954 0.54837 5.1377 0.68712 0.87353 2.1034 0.95581 2.8912 0.16797z" fill="url(#linearGradient1008)"/><path transform="translate(-1.2917e-6)" d="m87.893 134.92c-0.50287-0.39555-0.69714-0.793-0.69714-1.4262 0-0.78042 0.39674-1.261 3.5747-4.33 6.2564-6.0419 11.65-9.6052 18.905-12.489 4.6084-1.8321 8.0528-4.8505 10.051-8.8078 2.7623-5.4711 2.7951-10.786 0.10051-16.319-1.2096-2.484-1.3135-2.6038-8.8268-10.186-10.35-10.445-10.979-11.494-10.963-18.256 8e-3 -3.3729 0.0719-3.8626 0.71042-5.4759 1.187-2.9991 2.4691-4.649 7.8754-10.134 2.8684-2.9104 5.5208-5.8274 5.8943-6.4823 1.2121-2.1253 1.518-3.725 1.518-7.9375 0-5.3951-0.67021-7.5133-3.2355-10.226-2.3747-2.5109-5.0033-3.807-8.4723-4.1777l-1.9002-0.1092 0.049-2.036-0.13061-1.9217 1.8023 0.14637c5.2965 0.43015 9.7724 2.7406 12.726 6.6822 2.4511 3.2714 3.1304 5.7495 3.1304 11.42 0 4.9476-0.23192 6.2466-1.6428 9.201-0.99305 2.0795-1.4508 2.6248-6.6949 7.9759-5.0134 5.1156-5.7405 5.9695-6.6493 7.8083-1.0202 2.0643-1.0204 2.0649-1.0204 5.3856 0 3.2922 9e-3 3.3391 0.99282 5.4003 0.93163 1.9512 1.478 2.5709 8.8637 10.054 6.6102 6.6975 8.0486 8.2927 8.9805 9.9592 1.3233 2.3664 2.3584 5.353 2.7184 7.8432 1.1215 7.7578-2.16 15.748-8.4585 20.597-1.631 1.2556-3.2895 2.1287-7.5406 3.9697-6.3934 2.7688-10.354 5.496-16.459 11.333-3.4678 3.3155-3.9287 3.5406-5.2008 2.54zm-23.437-96.01c-0.75067-0.75067-0.90522-2.0594-0.70196-5.9438 0.32763-6.2611 1.5329-9.2135 5.3097-13.007 2.5741-2.5853 4.739-3.8762 7.9452-4.7376 2.2575-0.60651 10.327-0.91546 10.652-0.40206 0.21072 0.17941 0.3345 1.1394 0.33673 2.0489l0.0041 1.6536-3.3864 0.0082c-6.5551 0.01722-9.4041 0.91126-12.595 3.9523-3.1627 3.0142-4.0993 5.5573-4.3298 11.757-0.13412 3.6067-0.22626 4.2779-0.64472 4.6964-0.63687 0.63687-1.9403 0.6237-2.5901-0.02617z" fill="url(#linearGradient999)"/></g><g transform="matrix(1.2111 0 0 1.2111 -.099468 9.4449)" fill="url(#linearGradient991)"><path d="m121.66 106.04c-1.1911-1.1911-0.9275-1.7987 2.1168-4.8801l2.7662-2.7999-2.7662-2.8072c-3.043-3.088-3.3056-3.6938-2.1168-4.8826 1.2153-1.2153 1.8468-0.94173 4.902 2.1238l2.7638 2.7733 2.8143-2.7733c2.3731-2.3385 2.9449-2.7733 3.6476-2.7733 1.0926 0 1.8916 0.81234 1.8916 1.9232 0 0.74338-0.37166 1.2351-2.6458 3.5008-1.4552 1.4498-2.6458 2.7594-2.6458 2.9104 0 0.15098 1.1906 1.4607 2.6458 2.9104 2.2612 2.2527 2.6458 2.7601 2.6458 3.4905 0 1.0677-0.87049 1.9335-1.9439 1.9335-0.64265 0-1.2957-0.50382-3.5857-2.7662l-2.7999-2.7662-2.8072 2.7662c-3.088 3.043-3.6938 3.3056-4.8826 2.1168z"/><path d="m81.659 106.04c-1.1911-1.1911-0.9275-1.7987 2.1168-4.8801l2.7662-2.7999-2.7662-2.8072c-3.043-3.088-3.3056-3.6938-2.1168-4.8826 1.2153-1.2153 1.8468-0.94173 4.902 2.1238l2.7638 2.7733 2.8143-2.7733c2.3731-2.3385 2.9449-2.7733 3.6476-2.7733 1.0926 0 1.8916 0.81234 1.8916 1.9232 0 0.74338-0.37166 1.2351-2.6458 3.5008-1.4552 1.4498-2.6458 2.7594-2.6458 2.9104 0 0.15098 1.1906 1.4607 2.6458 2.9104 2.2612 2.2527 2.6458 2.7601 2.6458 3.4905 0 1.0677-0.87048 1.9335-1.9439 1.9335-0.64265 0-1.2957-0.50382-3.5857-2.7662l-2.7999-2.7662-2.8072 2.7662c-3.088 3.043-3.6938 3.3056-4.8826 2.1168z"/><path d="m101.66 106.04c-1.1911-1.1911-0.9275-1.7987 2.1168-4.8801l2.7662-2.7999-2.7662-2.8072c-3.043-3.088-3.3056-3.6938-2.1168-4.8826 1.2153-1.2153 1.8468-0.94173 4.902 2.1238l2.7638 2.7733 2.8143-2.7733c2.3731-2.3385 2.9449-2.7733 3.6476-2.7733 1.0926 0 1.8916 0.81234 1.8916 1.9232 0 0.74338-0.37166 1.2351-2.6458 3.5008-1.4552 1.4498-2.6458 2.7594-2.6458 2.9104 0 0.15098 1.1906 1.4607 2.6458 2.9104 2.2612 2.2527 2.6458 2.7601 2.6458 3.4905 0 1.0677-0.87049 1.9335-1.9439 1.9335-0.64265 0-1.2957-0.50382-3.5857-2.7662l-2.7999-2.7662-2.8072 2.7662c-3.088 3.043-3.6938 3.3056-4.8826 2.1168z"/><path d="m101.66 86.043c-1.1911-1.1911-0.9275-1.7987 2.1168-4.8801l2.7662-2.7999-2.7662-2.8072c-3.043-3.088-3.3056-3.6938-2.1168-4.8826 1.2153-1.2153 1.8468-0.94173 4.902 2.1238l2.7638 2.7733 2.8143-2.7733c2.3731-2.3385 2.9449-2.7733 3.6476-2.7733 1.0926 0 1.8916 0.81234 1.8916 1.9232 0 0.74338-0.37166 1.2351-2.6458 3.5008-1.4552 1.4498-2.6458 2.7594-2.6458 2.9104 0 0.15098 1.1906 1.4607 2.6458 2.9104 2.2612 2.2527 2.6458 2.7601 2.6458 3.4905 0 1.0677-0.87049 1.9335-1.9439 1.9335-0.64265 0-1.2957-0.50382-3.5857-2.7662l-2.7999-2.7662-2.8072 2.7662c-3.088 3.043-3.6938 3.3056-4.8826 2.1168z"/><path d="m121.66 66.043c-1.1911-1.1911-0.9275-1.7987 2.1168-4.8801l2.7662-2.7999-2.7662-2.8072c-3.043-3.088-3.3056-3.6938-2.1168-4.8826 1.2153-1.2153 1.8468-0.94173 4.902 2.1238l2.7638 2.7733 2.8143-2.7733c2.3731-2.3385 2.9449-2.7733 3.6476-2.7733 1.0926 0 1.8916 0.81234 1.8916 1.9232 0 0.74338-0.37166 1.2351-2.6458 3.5008-1.4552 1.4498-2.6458 2.7594-2.6458 2.9104 0 0.15098 1.1906 1.4607 2.6458 2.9104 2.2612 2.2527 2.6458 2.7601 2.6458 3.4905 0 1.0677-0.87049 1.9335-1.9439 1.9335-0.64265 0-1.2957-0.50382-3.5857-2.7662l-2.7999-2.7662-2.8072 2.7662c-3.088 3.043-3.6938 3.3056-4.8826 2.1168z"/><path d="m101.66 66.043c-1.1911-1.1911-0.9275-1.7987 2.1168-4.8801l2.7662-2.7999-2.7662-2.8072c-3.043-3.088-3.3056-3.6938-2.1168-4.8826 1.2153-1.2153 1.8468-0.94173 4.902 2.1238l2.7638 2.7733 2.8143-2.7733c2.3731-2.3385 2.9449-2.7733 3.6476-2.7733 1.0926 0 1.8916 0.81234 1.8916 1.9232 0 0.74338-0.37166 1.2351-2.6458 3.5008-1.4552 1.4498-2.6458 2.7594-2.6458 2.9104 0 0.15098 1.1906 1.4607 2.6458 2.9104 2.2612 2.2527 2.6458 2.7601 2.6458 3.4905 0 1.0677-0.87049 1.9335-1.9439 1.9335-0.64265 0-1.2957-0.50382-3.5857-2.7662l-2.7999-2.7662-2.8072 2.7662c-3.088 3.043-3.6938 3.3056-4.8826 2.1168z"/><path d="m81.659 66.043c-1.1911-1.1911-0.9275-1.7987 2.1168-4.8801l2.7662-2.7999-2.7662-2.8072c-3.043-3.088-3.3056-3.6938-2.1168-4.8826 1.2153-1.2153 1.8468-0.94173 4.902 2.1238l2.7638 2.7733 2.8143-2.7733c2.3731-2.3385 2.9449-2.7733 3.6476-2.7733 1.0926 0 1.8916 0.81234 1.8916 1.9232 0 0.74338-0.37166 1.2351-2.6458 3.5008-1.4552 1.4498-2.6458 2.7594-2.6458 2.9104 0 0.15098 1.1906 1.4607 2.6458 2.9104 2.2612 2.2527 2.6458 2.7601 2.6458 3.4905 0 1.0677-0.87048 1.9335-1.9439 1.9335-0.64265 0-1.2957-0.50382-3.5857-2.7662l-2.7999-2.7662-2.8072 2.7662c-3.088 3.043-3.6938 3.3056-4.8826 2.1168z"/></g><g transform="matrix(1.2111 0 0 1.2111 -.099468 9.4449)" fill="url(#linearGradient219)"><path d="m41.659 66.043c-1.1911-1.1911-0.9275-1.7987 2.1168-4.8801l2.7662-2.7999-2.7662-2.8072c-3.043-3.088-3.3056-3.6938-2.1168-4.8826 1.2153-1.2153 1.8468-0.94173 4.902 2.1238l2.7638 2.7733 2.8143-2.7733c2.3731-2.3385 2.9449-2.7733 3.6476-2.7733 1.0926 0 1.8916 0.81234 1.8916 1.9232 0 0.74338-0.37166 1.2351-2.6458 3.5008-1.4552 1.4498-2.6458 2.7594-2.6458 2.9104 0 0.15098 1.1906 1.4607 2.6458 2.9104 2.2612 2.2527 2.6458 2.7601 2.6458 3.4905 0 1.0677-0.87048 1.9335-1.9439 1.9335-0.64265 0-1.2957-0.50382-3.5857-2.7662l-2.7999-2.7662-2.8072 2.7662c-3.088 3.043-3.6938 3.3056-4.8826 2.1168z"/><path d="m41.659 86.043c-1.1911-1.1911-0.9275-1.7987 2.1168-4.8801l2.7662-2.7999-2.7662-2.8072c-3.043-3.088-3.3056-3.6938-2.1168-4.8826 1.2153-1.2153 1.8468-0.94173 4.902 2.1238l2.7638 2.7733 2.8143-2.7733c2.3731-2.3385 2.9449-2.7733 3.6476-2.7733 1.0926 0 1.8916 0.81234 1.8916 1.9232 0 0.74338-0.37166 1.2351-2.6458 3.5008-1.4552 1.4498-2.6458 2.7594-2.6458 2.9104 0 0.15098 1.1906 1.4607 2.6458 2.9104 2.2612 2.2527 2.6458 2.7601 2.6458 3.4905 0 1.0677-0.87048 1.9335-1.9439 1.9335-0.64265 0-1.2957-0.50382-3.5857-2.7662l-2.7999-2.7662-2.8072 2.7662c-3.088 3.043-3.6938 3.3056-4.8826 2.1168z"/><path d="m41.659 106.04c-1.1911-1.1911-0.9275-1.7987 2.1168-4.8801l2.7662-2.7999-2.7662-2.8072c-3.043-3.088-3.3056-3.6938-2.1168-4.8826 1.2153-1.2153 1.8468-0.94173 4.902 2.1238l2.7638 2.7733 2.8143-2.7733c2.3731-2.3385 2.9449-2.7733 3.6476-2.7733 1.0926 0 1.8916 0.81234 1.8916 1.9232 0 0.74338-0.37166 1.2351-2.6458 3.5008-1.4552 1.4498-2.6458 2.7594-2.6458 2.9104 0 0.15098 1.1906 1.4607 2.6458 2.9104 2.2612 2.2527 2.6458 2.7601 2.6458 3.4905 0 1.0677-0.87048 1.9335-1.9439 1.9335-0.64265 0-1.2957-0.50382-3.5857-2.7662l-2.7999-2.7662-2.8072 2.7662c-3.088 3.043-3.6938 3.3056-4.8826 2.1168z"/><path d="m21.659 106.04c-1.1911-1.1911-0.9275-1.7987 2.1168-4.8801l2.7662-2.7999-2.7662-2.8072c-3.043-3.088-3.3056-3.6938-2.1168-4.8826 1.2153-1.2153 1.8468-0.94173 4.902 2.1238l2.7638 2.7733 2.8143-2.7733c2.3731-2.3385 2.9449-2.7733 3.6476-2.7733 1.0926 0 1.8916 0.81234 1.8916 1.9232 0 0.74338-0.37166 1.2351-2.6458 3.5008-1.4552 1.4498-2.6458 2.7594-2.6458 2.9104 0 0.15098 1.1906 1.4607 2.6458 2.9104 2.2612 2.2527 2.6458 2.7601 2.6458 3.4905 0 1.0677-0.87048 1.9335-1.9439 1.9335-0.64265 0-1.2957-0.50382-3.5857-2.7662l-2.7999-2.7662-2.8072 2.7662c-3.088 3.043-3.6938 3.3056-4.8826 2.1168z"/><path d="m1.6592 106.04c-1.1911-1.1911-0.9275-1.7987 2.1168-4.8801l2.7662-2.7999-2.7662-2.8072c-3.043-3.088-3.3056-3.6938-2.1168-4.8826 1.2153-1.2153 1.8468-0.94173 4.902 2.1238l2.7638 2.7733 2.8143-2.7733c2.3731-2.3385 2.9449-2.7733 3.6476-2.7733 1.0926 0 1.8916 0.81234 1.8916 1.9232 0 0.74338-0.37166 1.2351-2.6458 3.5008-1.4552 1.4498-2.6458 2.7594-2.6458 2.9104 0 0.15098 1.1906 1.4607 2.6458 2.9104 2.2612 2.2527 2.6458 2.7601 2.6458 3.4905 0 1.0677-0.87048 1.9335-1.9439 1.9335-0.64265 0-1.2957-0.50382-3.5857-2.7662l-2.7999-2.7662-2.8072 2.7662c-3.088 3.043-3.6938 3.3056-4.8826 2.1168z"/><path d="m1.6592 86.043c-1.1911-1.1911-0.9275-1.7987 2.1168-4.8801l2.7662-2.7999-2.7662-2.8072c-3.043-3.088-3.3056-3.6938-2.1168-4.8826 1.2153-1.2153 1.8468-0.94173 4.902 2.1238l2.7638 2.7733 2.8143-2.7733c2.3731-2.3385 2.9449-2.7733 3.6476-2.7733 1.0926 0 1.8916 0.81234 1.8916 1.9232 0 0.74338-0.37166 1.2351-2.6458 3.5008-1.4552 1.4498-2.6458 2.7594-2.6458 2.9104 0 0.15098 1.1906 1.4607 2.6458 2.9104 2.2612 2.2527 2.6458 2.7601 2.6458 3.4905 0 1.0677-0.87048 1.9335-1.9439 1.9335-0.64265 0-1.2957-0.50382-3.5857-2.7662l-2.7999-2.7662-2.8072 2.7662c-3.088 3.043-3.6938 3.3056-4.8826 2.1168z"/><path d="m1.6592 66.043c-1.1911-1.1911-0.9275-1.7987 2.1168-4.8801l2.7662-2.7999-2.7662-2.8072c-3.043-3.088-3.3056-3.6938-2.1168-4.8826 1.2153-1.2153 1.8468-0.94173 4.902 2.1238l2.7638 2.7733 2.8143-2.7733c2.3731-2.3385 2.9449-2.7733 3.6476-2.7733 1.0926 0 1.8916 0.81234 1.8916 1.9232 0 0.74338-0.37166 1.2351-2.6458 3.5008-1.4552 1.4498-2.6458 2.7594-2.6458 2.9104 0 0.15098 1.1906 1.4607 2.6458 2.9104 2.2612 2.2527 2.6458 2.7601 2.6458 3.4905 0 1.0677-0.87048 1.9335-1.9439 1.9335-0.64265 0-1.2957-0.50382-3.5857-2.7662l-2.7999-2.7662-2.8072 2.7662c-3.088 3.043-3.6938 3.3056-4.8826 2.1168z"/></g></svg>
